<?xml version="1.0" encoding="utf-8"?>
<svg viewBox="-7.176 -8.758 100 100" xmlns="http://www.w3.org/2000/svg" xmlns:bx="https://boxy-svg.com">
  <g transform="matrix(1, 0, 0, 1, -1025.231689, -98.544395)">
    <g transform="matrix(1, 0, 0, 1, 62.338722, -53.324585)">
      <rect style="stroke-width: 3px; stroke: rgb(204, 204, 204); fill: rgb(136, 136, 136);" x="987.378" y="161.2" width="36.678" height="60.381" rx="4" ry="4"/>
      <line style="stroke-width: 3px; stroke: rgb(204, 204, 204); fill: rgb(136, 136, 136);" x1="987.466" y1="186.987" x2="1023.054" y2="187.163" bx:origin="0.5 0.480786"/>
      <line style="stroke-width: 3px; stroke: rgb(171, 225, 152); fill: rgb(136, 136, 136);" x1="996.064" y1="173.063" x2="996.064" y2="181.111"/>
      <line style="stroke-width: 3px; stroke: rgb(171, 225, 152); fill: rgb(136, 136, 136);" x1="996.049" y1="193.607" x2="996.049" y2="201.656"/>
      <g transform="matrix(0.746055, 0, 0, 0.746055, 250.140472, 44.666126)" style="">
        <path style="fill: rgb(204, 204, 204);" d="M 992.378 238 H 1000.477 V 239.873 A 1.9 1.873 0 0 1 998.577 241.746 H 994.278 A 1.9 1.873 0 0 1 992.378 239.873 V 238 Z" bx:shape="rect 992.378 238 8.099 3.746 0 0 1.9 1.9 1@d8f542d8"/>
        <path style="fill: rgb(204, 204, 204);" d="M 1025.047 238 H 1033.146 V 239.873 A 1.9 1.873 0 0 1 1031.246 241.746 H 1026.947 A 1.9 1.873 0 0 1 1025.047 239.873 V 238 Z" bx:shape="rect 1025.047 238 8.099 3.746 0 0 1.9 1.9 1@8fe23a04"/>
      </g>
    </g>
  </g>
</svg>