<?xml version="1.0" encoding="utf-8"?>
<svg viewBox="-7.176 -8.758 100 100" xmlns="http://www.w3.org/2000/svg" xmlns:bx="https://boxy-svg.com">
  <g transform="matrix(1.234996, 0, 0, 1.234996, -1299.273926, -247.895264)">
    <rect style="stroke: rgb(204, 204, 204); stroke-width: 3px; fill: rgb(255, 233, 152);" x="1073.767" y="228.075" width="25.911" height="24.874" rx="3.832" ry="3.832"/>
    <path style="stroke: rgb(204, 204, 204); fill: none; stroke-width: 3px;" d="M 1082.456 215.291 H 1090.99 A 3.832 3.832 0 0 1 1094.822 219.123 V 227.63 H 1078.624 V 219.123 A 3.832 3.832 0 0 1 1082.456 215.291 Z" bx:shape="rect 1078.624 215.291 16.198 12.339 3.832 3.832 0 0 1@2712efd9"/>
    <g transform="matrix(1.186374, 0, 0, 1.186374, 225.565903, -99.507088)" style="">
      <circle style="fill: rgb(136, 136, 136);" cx="725.692" cy="285.407" r="4.218"/>
      <path style="fill: rgb(136, 136, 136);" d="M 724.192 287.499 H 727.192 V 290.518 A 1.5 1.5 0 0 1 725.692 292.018 H 725.692 A 1.5 1.5 0 0 1 724.192 290.518 V 287.499 Z" bx:shape="rect 724.192 287.499 3 4.519 0 0 1.5 1.5 1@a32f9ee2"/>
    </g>
  </g>
</svg>